STARTFONT 2.1
COMMENT
COMMENT  This font is copyrighted by Roar Lauritzsen, who reserves all rights
COMMENT  under national and international copyright laws.
COMMENT
COMMENT  Produced with bdfedit, a tcl/tk font editing program
COMMENT    written by Thomas A. Fine
COMMENT    fine@head-cfa.harvard.edu
COMMENT    http://hea-www.harvard.edu/~fine/
FONT -misc-nethack-bold-r-normal--18-120-100-100-c-120--custom
SIZE 18 72 72
FONTBOUNDINGBOX 12 12 0 -2
STARTPROPERTIES 11
FOUNDRY "Misc"
FAMILY_NAME "Nethack"
WEIGHT_NAME "Bold"
SLANT "R"
SETWIDTH_NAME "Normal"
SPACING "c"
CHARSET_REGISTRY "ISO-8859"
CHARSET_ENCODING "1"
COPYRIGHT "Designer of this font, Roar Lauritzsen, retains full rights under the law"
FONT_ASCENT  10
FONT_DESCENT 2
ENDPROPERTIES
CHARS 191
STARTCHAR C040
ENCODING 32
SWIDTH 666 0
DWIDTH 12 0
BBX 0 0 0 0
BITMAP
ENDCHAR
STARTCHAR C041
ENCODING 33
SWIDTH 666 0
DWIDTH 12 0
BBX 3 10 4 0
BITMAP
e0
e0
e0
e0
40
40
40
00
e0
e0
ENDCHAR
STARTCHAR C042
ENCODING 34
SWIDTH 666 0
DWIDTH 12 0
BBX 8 3 2 7
BITMAP
77
77
ee
ENDCHAR
STARTCHAR C043
ENCODING 35
SWIDTH 666 0
DWIDTH 12 0
BBX 10 10 1 -1
BITMAP
3300
3300
ffc0
ffc0
3300
3300
ffc0
ffc0
3300
3300
ENDCHAR
STARTCHAR C044
ENCODING 36
SWIDTH 666 0
DWIDTH 12 0
BBX 10 11 1 -1
BITMAP
0c00
3f00
6d80
ccc0
6c00
3f00
0d80
ccc0
6d80
3f00
0c00
ENDCHAR
STARTCHAR C045
ENCODING 37
SWIDTH 666 0
DWIDTH 12 0
BBX 10 9 1 0
BITMAP
70c0
d980
db00
7600
0c00
1b80
36c0
66c0
c380
ENDCHAR
STARTCHAR C046
ENCODING 38
SWIDTH 666 0
DWIDTH 12 0
BBX 11 10 1 -1
BITMAP
c180
6b00
3e60
2a20
7f60
7740
5d00
1c00
3600
6300
ENDCHAR
STARTCHAR C047
ENCODING 39
SWIDTH 666 0
DWIDTH 12 0
BBX 4 4 4 6
BITMAP
70
70
30
e0
ENDCHAR
STARTCHAR C050
ENCODING 40
SWIDTH 666 0
DWIDTH 12 0
BBX 6 11 3 -1
BITMAP
1c
38
70
e0
e0
e0
e0
e0
70
38
1c
ENDCHAR
STARTCHAR C051
ENCODING 41
SWIDTH 666 0
DWIDTH 12 0
BBX 6 11 3 -1
BITMAP
e0
70
38
1c
1c
1c
1c
1c
38
70
e0
ENDCHAR
STARTCHAR C052
ENCODING 42
SWIDTH 666 0
DWIDTH 12 0
BBX 10 10 1 -1
BITMAP
0c00
0c00
ccc0
edc0
1e00
1e00
edc0
ccc0
0c00
0c00
ENDCHAR
STARTCHAR C053
ENCODING 43
SWIDTH 666 0
DWIDTH 12 0
BBX 8 8 2 0
BITMAP
18
18
18
ff
ff
18
18
18
ENDCHAR
STARTCHAR C054
ENCODING 44
SWIDTH 666 0
DWIDTH 12 0
BBX 4 4 4 -1
BITMAP
70
70
30
e0
ENDCHAR
STARTCHAR C055
ENCODING 45
SWIDTH 666 0
DWIDTH 12 0
BBX 12 4 0 2
BITMAP
6660
fff0
fff0
6660
ENDCHAR
STARTCHAR C056
ENCODING 46
SWIDTH 666 0
DWIDTH 12 0
BBX 3 3 5 0
BITMAP
e0
e0
e0
ENDCHAR
STARTCHAR C057
ENCODING 47
SWIDTH 666 0
DWIDTH 12 0
BBX 12 12 0 -2
BITMAP
0070
00f0
00f0
01e0
0780
0f00
0f00
1e00
7800
f000
f000
e000
ENDCHAR
STARTCHAR C060
ENCODING 48
SWIDTH 666 0
DWIDTH 12 0
BBX 8 10 2 0
BITMAP
3c
66
e7
e7
e7
e7
e7
e7
66
3c
ENDCHAR
STARTCHAR C061
ENCODING 49
SWIDTH 666 0
DWIDTH 12 0
BBX 9 10 2 0
BITMAP
1c00
3c00
7c00
9c00
1c00
1c00
1c00
1c00
1c00
ff80
ENDCHAR
STARTCHAR C062
ENCODING 50
SWIDTH 666 0
DWIDTH 12 0
BBX 10 10 1 0
BITMAP
3f00
7380
e1c0
01c0
0380
0f00
3c00
7000
e000
ffc0
ENDCHAR
STARTCHAR C063
ENCODING 51
SWIDTH 666 0
DWIDTH 12 0
BBX 10 10 1 0
BITMAP
3f00
7380
e1c0
0380
1f00
0380
01c0
e1c0
7380
3f00
ENDCHAR
STARTCHAR C064
ENCODING 52
SWIDTH 666 0
DWIDTH 12 0
BBX 10 10 1 0
BITMAP
0700
0f00
1f00
3f00
7700
e700
c700
ffc0
0700
0700
ENDCHAR
STARTCHAR C065
ENCODING 53
SWIDTH 666 0
DWIDTH 12 0
BBX 10 10 1 0
BITMAP
ff80
e000
e000
ff00
0380
01c0
01c0
e1c0
7380
3f00
ENDCHAR
STARTCHAR C066
ENCODING 54
SWIDTH 666 0
DWIDTH 12 0
BBX 10 10 1 0
BITMAP
1f00
3b80
7000
e000
ff00
f380
e1c0
e1c0
7380
3f00
ENDCHAR
STARTCHAR C067
ENCODING 55
SWIDTH 666 0
DWIDTH 12 0
BBX 10 10 1 0
BITMAP
ffc0
01c0
01c0
0380
0700
0e00
1c00
3800
7000
7000
ENDCHAR
STARTCHAR C070
ENCODING 56
SWIDTH 666 0
DWIDTH 12 0
BBX 10 10 1 0
BITMAP
3f00
7380
e1c0
7380
3f00
7380
e1c0
e1c0
7380
3f00
ENDCHAR
STARTCHAR C071
ENCODING 57
SWIDTH 666 0
DWIDTH 12 0
BBX 10 10 1 0
BITMAP
3f00
7380
e1c0
e1c0
73c0
3fc0
01c0
0380
7700
3e00
ENDCHAR
STARTCHAR C072
ENCODING 58
SWIDTH 666 0
DWIDTH 12 0
BBX 3 7 5 0
BITMAP
e0
e0
e0
00
e0
e0
e0
ENDCHAR
STARTCHAR C073
ENCODING 59
SWIDTH 666 0
DWIDTH 12 0
BBX 4 8 4 -1
BITMAP
70
70
70
00
70
70
30
e0
ENDCHAR
STARTCHAR C074
ENCODING 60
SWIDTH 666 0
DWIDTH 12 0
BBX 6 10 3 -1
BITMAP
0c
1c
38
70
e0
e0
70
38
1c
0c
ENDCHAR
STARTCHAR C075
ENCODING 61
SWIDTH 666 0
DWIDTH 12 0
BBX 8 6 2 1
BITMAP
ff
ff
00
00
ff
ff
ENDCHAR
STARTCHAR C076
ENCODING 62
SWIDTH 666 0
DWIDTH 12 0
BBX 6 10 3 -1
BITMAP
c0
e0
70
38
1c
1c
38
70
e0
c0
ENDCHAR
STARTCHAR C077
ENCODING 63
SWIDTH 666 0
DWIDTH 12 0
BBX 10 10 1 0
BITMAP
3f00
7380
e1c0
01c0
0780
0e00
0e00
0000
0e00
0e00
ENDCHAR
STARTCHAR C100
ENCODING 64
SWIDTH 666 0
DWIDTH 12 0
BBX 8 10 2 -1
BITMAP
18
3c
3c
18
66
ff
bd
bd
34
66
ENDCHAR
STARTCHAR C101
ENCODING 65
SWIDTH 666 0
DWIDTH 12 0
BBX 10 10 1 0
BITMAP
1e00
1e00
3f00
3300
7380
6180
7f80
e1c0
e1c0
e1c0
ENDCHAR
STARTCHAR C102
ENCODING 66
SWIDTH 666 0
DWIDTH 12 0
BBX 10 10 1 0
BITMAP
ff00
e380
e1c0
e380
ff00
e380
e1c0
e1c0
e380
ff00
ENDCHAR
STARTCHAR C103
ENCODING 67
SWIDTH 666 0
DWIDTH 12 0
BBX 10 10 1 0
BITMAP
1f00
3b80
71c0
e000
e000
e000
e000
71c0
3b80
1f00
ENDCHAR
STARTCHAR C104
ENCODING 68
SWIDTH 666 0
DWIDTH 12 0
BBX 10 10 1 0
BITMAP
fe00
e700
e380
e1c0
e1c0
e1c0
e1c0
e380
e700
fe00
ENDCHAR
STARTCHAR C105
ENCODING 69
SWIDTH 666 0
DWIDTH 12 0
BBX 10 10 1 0
BITMAP
ffc0
e000
e000
e000
ff00
e000
e000
e000
e000
ffc0
ENDCHAR
STARTCHAR C106
ENCODING 70
SWIDTH 666 0
DWIDTH 12 0
BBX 10 10 1 0
BITMAP
ffc0
e000
e000
e000
e000
ff00
e000
e000
e000
e000
ENDCHAR
STARTCHAR C107
ENCODING 71
SWIDTH 666 0
DWIDTH 12 0
BBX 10 10 1 0
BITMAP
1f00
3b80
71c0
e000
e000
e7c0
e1c0
71c0
3bc0
1ec0
ENDCHAR
STARTCHAR C110
ENCODING 72
SWIDTH 666 0
DWIDTH 12 0
BBX 10 10 1 0
BITMAP
e1c0
e1c0
e1c0
e1c0
ffc0
e1c0
e1c0
e1c0
e1c0
e1c0
ENDCHAR
STARTCHAR C111
ENCODING 73
SWIDTH 666 0
DWIDTH 12 0
BBX 7 10 3 0
BITMAP
fe
38
38
38
38
38
38
38
38
fe
ENDCHAR
STARTCHAR C112
ENCODING 74
SWIDTH 666 0
DWIDTH 12 0
BBX 10 10 1 0
BITMAP
1fc0
01c0
01c0
01c0
01c0
01c0
01c0
0380
e700
7e00
ENDCHAR
STARTCHAR C113
ENCODING 75
SWIDTH 666 0
DWIDTH 12 0
BBX 10 10 1 0
BITMAP
e1c0
e380
e700
ee00
fc00
ee00
e700
e380
e1c0
e1c0
ENDCHAR
STARTCHAR C114
ENCODING 76
SWIDTH 666 0
DWIDTH 12 0
BBX 10 10 1 0
BITMAP
e000
e000
e000
e000
e000
e000
e000
e000
e000
ffc0
ENDCHAR
STARTCHAR C115
ENCODING 77
SWIDTH 666 0
DWIDTH 12 0
BBX 10 10 1 0
BITMAP
c0c0
e1c0
f3c0
ffc0
ffc0
edc0
e1c0
e1c0
e1c0
e1c0
ENDCHAR
STARTCHAR C116
ENCODING 78
SWIDTH 666 0
DWIDTH 12 0
BBX 10 10 1 0
BITMAP
c1c0
e1c0
f1c0
f9c0
fdc0
efc0
e7c0
e3c0
e1c0
e1c0
ENDCHAR
STARTCHAR C117
ENCODING 79
SWIDTH 666 0
DWIDTH 12 0
BBX 10 10 1 0
BITMAP
1e00
3300
6180
e1c0
e1c0
e1c0
e1c0
6180
3300
1e00
ENDCHAR
STARTCHAR C120
ENCODING 80
SWIDTH 666 0
DWIDTH 12 0
BBX 10 10 1 0
BITMAP
ff00
e380
e1c0
e1c0
e380
ff00
e000
e000
e000
e000
ENDCHAR
STARTCHAR C121
ENCODING 81
SWIDTH 666 0
DWIDTH 12 0
BBX 10 12 1 -2
BITMAP
1e00
3300
6180
e1c0
e1c0
e1c0
e1c0
6d80
3700
1e00
0380
0180
ENDCHAR
STARTCHAR C122
ENCODING 82
SWIDTH 666 0
DWIDTH 12 0
BBX 10 10 1 0
BITMAP
ff00
e380
e1c0
e1c0
e380
ff00
e700
e380
e1c0
e1c0
ENDCHAR
STARTCHAR C123
ENCODING 83
SWIDTH 666 0
DWIDTH 12 0
BBX 10 10 1 0
BITMAP
3f00
7380
e000
7000
3f00
0380
01c0
e1c0
7380
3f00
ENDCHAR
STARTCHAR C124
ENCODING 84
SWIDTH 666 0
DWIDTH 12 0
BBX 9 10 2 0
BITMAP
ff80
1c00
1c00
1c00
1c00
1c00
1c00
1c00
1c00
1c00
ENDCHAR
STARTCHAR C125
ENCODING 85
SWIDTH 666 0
DWIDTH 12 0
BBX 10 10 1 0
BITMAP
e1c0
e1c0
e1c0
e1c0
e1c0
e1c0
e1c0
6180
3300
1e00
ENDCHAR
STARTCHAR C126
ENCODING 86
SWIDTH 666 0
DWIDTH 12 0
BBX 10 10 1 0
BITMAP
c0c0
c0c0
c0c0
6180
6180
6180
3300
3300
1e00
1e00
ENDCHAR
STARTCHAR C127
ENCODING 87
SWIDTH 666 0
DWIDTH 12 0
BBX 10 10 1 0
BITMAP
c0c0
c0c0
c0c0
ccc0
ccc0
6d80
6d80
7f80
3300
3300
ENDCHAR
STARTCHAR C130
ENCODING 88
SWIDTH 666 0
DWIDTH 12 0
BBX 11 10 1 0
BITMAP
e0e0
71c0
3b80
1f00
0e00
1f00
3b80
71c0
e0e0
e0e0
ENDCHAR
STARTCHAR C131
ENCODING 89
SWIDTH 666 0
DWIDTH 12 0
BBX 11 10 1 0
BITMAP
e0e0
e0e0
71c0
3b80
1f00
0e00
0e00
0e00
0e00
0e00
ENDCHAR
STARTCHAR C132
ENCODING 90
SWIDTH 666 0
DWIDTH 12 0
BBX 10 10 1 0
BITMAP
ffc0
01c0
0380
0700
0e00
1c00
3800
7000
e000
ffc0
ENDCHAR
STARTCHAR C133
ENCODING 91
SWIDTH 666 0
DWIDTH 12 0
BBX 6 11 3 -1
BITMAP
fc
e0
e0
e0
e0
e0
e0
e0
e0
e0
fc
ENDCHAR
STARTCHAR C134
ENCODING 92
SWIDTH 666 0
DWIDTH 12 0
BBX 12 12 0 -2
BITMAP
e000
f000
f000
7800
1e00
0f00
0f00
0780
01e0
00f0
00f0
0070
ENDCHAR
STARTCHAR C135
ENCODING 93
SWIDTH 666 0
DWIDTH 12 0
BBX 6 11 3 -1
BITMAP
fc
1c
1c
1c
1c
1c
1c
1c
1c
1c
fc
ENDCHAR
STARTCHAR C136
ENCODING 94
SWIDTH 666 0
DWIDTH 12 0
BBX 8 5 2 4
BITMAP
18
3c
7e
e7
c3
ENDCHAR
STARTCHAR C137
ENCODING 95
SWIDTH 666 0
DWIDTH 12 0
BBX 10 2 1 -2
BITMAP
ffc0
ffc0
ENDCHAR
STARTCHAR C140
ENCODING 96
SWIDTH 666 0
DWIDTH 12 0
BBX 4 4 4 6
BITMAP
e0
e0
c0
70
ENDCHAR
STARTCHAR C141
ENCODING 97
SWIDTH 666 0
DWIDTH 12 0
BBX 10 8 1 0
BITMAP
7f00
6380
01c0
3fc0
71c0
e3c0
77c0
3ec0
ENDCHAR
STARTCHAR C142
ENCODING 98
SWIDTH 666 0
DWIDTH 12 0
BBX 10 10 1 0
BITMAP
e000
e000
ef00
fb80
e1c0
e1c0
e1c0
e1c0
e380
fe00
ENDCHAR
STARTCHAR C143
ENCODING 99
SWIDTH 666 0
DWIDTH 12 0
BBX 9 8 1 0
BITMAP
1e00
7380
e180
e000
e000
e180
7380
1e00
ENDCHAR
STARTCHAR C144
ENCODING 100
SWIDTH 666 0
DWIDTH 12 0
BBX 10 10 1 0
BITMAP
01c0
01c0
1fc0
71c0
e1c0
e1c0
e1c0
e1c0
77c0
3dc0
ENDCHAR
STARTCHAR C145
ENCODING 101
SWIDTH 666 0
DWIDTH 12 0
BBX 10 8 1 0
BITMAP
1f00
71c0
e1c0
ffc0
e000
e000
71c0
1f80
ENDCHAR
STARTCHAR C146
ENCODING 102
SWIDTH 666 0
DWIDTH 12 0
BBX 9 10 2 0
BITMAP
0f80
1c00
3800
3800
ff00
3800
3800
3800
3800
3800
ENDCHAR
STARTCHAR C147
ENCODING 103
SWIDTH 666 0
DWIDTH 12 0
BBX 10 10 1 -2
BITMAP
1fc0
71c0
e1c0
e1c0
e1c0
77c0
3dc0
01c0
e380
7f00
ENDCHAR
STARTCHAR C150
ENCODING 104
SWIDTH 666 0
DWIDTH 12 0
BBX 10 10 1 0
BITMAP
e000
e000
ef00
fb80
e1c0
e1c0
e1c0
e1c0
e1c0
e1c0
ENDCHAR
STARTCHAR C151
ENCODING 105
SWIDTH 666 0
DWIDTH 12 0
BBX 6 10 2 0
BITMAP
1c
1c
00
fc
1c
1c
1c
1c
1c
1c
ENDCHAR
STARTCHAR C152
ENCODING 106
SWIDTH 666 0
DWIDTH 12 0
BBX 7 12 1 -2
BITMAP
0e
0e
00
7e
0e
0e
0e
0e
0e
0e
1c
f8
ENDCHAR
STARTCHAR C153
ENCODING 107
SWIDTH 666 0
DWIDTH 12 0
BBX 10 10 1 0
BITMAP
e000
e000
e000
e1c0
e780
ee00
f800
ee00
e780
e1c0
ENDCHAR
STARTCHAR C154
ENCODING 108
SWIDTH 666 0
DWIDTH 12 0
BBX 6 10 2 0
BITMAP
fc
1c
1c
1c
1c
1c
1c
1c
1c
1c
ENDCHAR
STARTCHAR C155
ENCODING 109
SWIDTH 666 0
DWIDTH 12 0
BBX 11 8 1 0
BITMAP
bbc0
eee0
eee0
eee0
eee0
eee0
eee0
eee0
ENDCHAR
STARTCHAR C156
ENCODING 110
SWIDTH 666 0
DWIDTH 12 0
BBX 10 8 1 0
BITMAP
ef00
fb80
e1c0
e1c0
e1c0
e1c0
e1c0
e1c0
ENDCHAR
STARTCHAR C157
ENCODING 111
SWIDTH 666 0
DWIDTH 12 0
BBX 10 8 1 0
BITMAP
1e00
7380
e1c0
e1c0
e1c0
e1c0
7380
1e00
ENDCHAR
STARTCHAR C160
ENCODING 112
SWIDTH 666 0
DWIDTH 12 0
BBX 10 10 1 -2
BITMAP
ef00
fb80
e1c0
e1c0
e1c0
e1c0
e380
fe00
e000
e000
ENDCHAR
STARTCHAR C161
ENCODING 113
SWIDTH 666 0
DWIDTH 12 0
BBX 10 10 1 -2
BITMAP
1fc0
71c0
e1c0
e1c0
e1c0
e1c0
77c0
3dc0
01c0
01c0
ENDCHAR
STARTCHAR C162
ENCODING 114
SWIDTH 666 0
DWIDTH 12 0
BBX 10 8 1 0
BITMAP
ef80
f9c0
e1c0
e000
e000
e000
e000
e000
ENDCHAR
STARTCHAR C163
ENCODING 115
SWIDTH 666 0
DWIDTH 12 0
BBX 10 8 1 0
BITMAP
7f00
e380
e000
7c00
0780
01c0
e1c0
7f00
ENDCHAR
STARTCHAR C164
ENCODING 116
SWIDTH 666 0
DWIDTH 12 0
BBX 9 10 2 0
BITMAP
1800
3800
ff00
3800
3800
3800
3800
3800
1c00
0f80
ENDCHAR
STARTCHAR C165
ENCODING 117
SWIDTH 666 0
DWIDTH 12 0
BBX 10 8 1 0
BITMAP
e1c0
e1c0
e1c0
e1c0
e1c0
e1c0
77c0
3dc0
ENDCHAR
STARTCHAR C166
ENCODING 118
SWIDTH 666 0
DWIDTH 12 0
BBX 11 8 1 0
BITMAP
e0e0
e0e0
71c0
71c0
3b80
3b80
1f00
0e00
ENDCHAR
STARTCHAR C167
ENCODING 119
SWIDTH 666 0
DWIDTH 12 0
BBX 11 8 1 0
BITMAP
e0e0
e0e0
eee0
eee0
7fc0
7fc0
3b80
3b80
ENDCHAR
STARTCHAR C170
ENCODING 120
SWIDTH 666 0
DWIDTH 12 0
BBX 11 8 1 0
BITMAP
e0e0
71c0
3b80
1f00
1f00
3b80
71c0
e0e0
ENDCHAR
STARTCHAR C171
ENCODING 121
SWIDTH 666 0
DWIDTH 12 0
BBX 10 10 1 -2
BITMAP
e1c0
e1c0
e1c0
e1c0
e1c0
77c0
3dc0
01c0
e380
7f00
ENDCHAR
STARTCHAR C172
ENCODING 122
SWIDTH 666 0
DWIDTH 12 0
BBX 10 8 1 0
BITMAP
ffc0
0380
0700
0e00
1c00
3800
7000
ffc0
ENDCHAR
STARTCHAR C173
ENCODING 123
SWIDTH 666 0
DWIDTH 12 0
BBX 8 11 1 -1
BITMAP
1f
38
3c
3c
1c
f8
1c
3c
3c
38
1f
ENDCHAR
STARTCHAR C174
ENCODING 124
SWIDTH 666 0
DWIDTH 12 0
BBX 4 12 4 -2
BITMAP
60
f0
f0
60
60
f0
f0
60
60
f0
f0
60
ENDCHAR
STARTCHAR C175
ENCODING 125
SWIDTH 666 0
DWIDTH 12 0
BBX 8 11 3 -1
BITMAP
f8
1c
3c
3c
38
1f
38
3c
3c
1c
f8
ENDCHAR
STARTCHAR C176
ENCODING 126
SWIDTH 666 0
DWIDTH 12 0
BBX 9 3 2 6
BITMAP
7980
dd80
cf00
ENDCHAR
STARTCHAR C240
ENCODING 160
SWIDTH 666 0
DWIDTH 12 0
BBX 9 9 1 -1
BITMAP
8080
4100
2200
1400
0800
1400
2200
4100
8080
ENDCHAR
STARTCHAR C241
ENCODING 161
SWIDTH 666 0
DWIDTH 12 0
BBX 7 9 2 -1
BITMAP
38
38
7c
38
7c
fe
fa
e2
7c
ENDCHAR
STARTCHAR C242
ENCODING 162
SWIDTH 666 0
DWIDTH 12 0
BBX 9 9 1 -1
BITMAP
8080
4100
2200
1400
0800
1400
2200
4100
8080
ENDCHAR
STARTCHAR C243
ENCODING 163
SWIDTH 666 0
DWIDTH 12 0
BBX 9 9 1 -1
BITMAP
8080
4100
2200
1400
0800
1400
2200
4100
8080
ENDCHAR
STARTCHAR C244
ENCODING 164
SWIDTH 666 0
DWIDTH 12 0
BBX 10 7 1 -1
BITMAP
0600
3300
6d80
1e00
6d80
f3c0
6d80
ENDCHAR
STARTCHAR C245
ENCODING 165
SWIDTH 666 0
DWIDTH 12 0
BBX 10 10 1 -1
BITMAP
6000
6000
f000
f780
ef40
dec0
a140
e940
2180
3f00
ENDCHAR
STARTCHAR C246
ENCODING 166
SWIDTH 666 0
DWIDTH 12 0
BBX 9 9 1 -1
BITMAP
8080
4100
2200
1400
0800
1400
2200
4100
8080
ENDCHAR
STARTCHAR C247
ENCODING 167
SWIDTH 666 0
DWIDTH 12 0
BBX 9 10 1 -1
BITMAP
1800
1c00
0800
eb80
bd80
9c00
1800
6400
6300
c300
ENDCHAR
STARTCHAR C250
ENCODING 168
SWIDTH 666 0
DWIDTH 12 0
BBX 10 6 1 0
BITMAP
0400
cf00
7fc0
1f40
0600
0f00
ENDCHAR
STARTCHAR C251
ENCODING 169
SWIDTH 666 0
DWIDTH 12 0
BBX 9 10 1 -1
BITMAP
8000
c000
e000
7000
3800
1d00
0e00
1b00
0180
0080
ENDCHAR
STARTCHAR C252
ENCODING 170
SWIDTH 666 0
DWIDTH 12 0
BBX 9 8 1 0
BITMAP
8880
4900
0000
3e00
7d00
3a00
1400
0800
ENDCHAR
STARTCHAR C253
ENCODING 171
SWIDTH 666 0
DWIDTH 12 0
BBX 10 11 1 -2
BITMAP
1800
3e00
3980
7ac0
6bc0
f340
9f40
8680
6080
1900
0600
ENDCHAR
STARTCHAR C254
ENCODING 172
SWIDTH 666 0
DWIDTH 12 0
BBX 9 9 1 -1
BITMAP
8080
4100
2200
1400
0800
1400
2200
4100
8080
ENDCHAR
STARTCHAR C255
ENCODING 173
SWIDTH 666 0
DWIDTH 12 0
BBX 9 9 1 -1
BITMAP
8080
4100
2200
1400
0800
1400
2200
4100
8080
ENDCHAR
STARTCHAR C256
ENCODING 174
SWIDTH 666 0
DWIDTH 12 0
BBX 9 9 1 -1
BITMAP
8080
4100
2200
1400
0800
1400
2200
4100
8080
ENDCHAR
STARTCHAR C257
ENCODING 175
SWIDTH 666 0
DWIDTH 12 0
BBX 10 8 1 0
BITMAP
01c0
0380
0500
0a00
1c00
2800
7000
e000
ENDCHAR
STARTCHAR C260
ENCODING 176
SWIDTH 666 0
DWIDTH 12 0
BBX 9 9 1 -1
BITMAP
8080
4100
2200
1400
0800
1400
2200
4100
8080
ENDCHAR
STARTCHAR C261
ENCODING 177
SWIDTH 666 0
DWIDTH 12 0
BBX 9 10 1 -1
BITMAP
3e00
7f00
4100
d980
f380
e780
cd80
4100
7f00
3e00
ENDCHAR
STARTCHAR C262
ENCODING 178
SWIDTH 666 0
DWIDTH 12 0
BBX 9 10 1 -1
BITMAP
3e00
6300
4900
d980
dd80
dd80
dd80
4900
6300
3e00
ENDCHAR
STARTCHAR C263
ENCODING 179
SWIDTH 666 0
DWIDTH 12 0
BBX 9 10 1 -1
BITMAP
3e00
7700
6300
f680
f180
c780
b780
6300
7700
3e00
ENDCHAR
STARTCHAR C264
ENCODING 180
SWIDTH 666 0
DWIDTH 12 0
BBX 9 10 1 -1
BITMAP
3e00
7d00
7d00
d980
c180
c180
cd80
5f00
5f00
3e00
ENDCHAR
STARTCHAR C265
ENCODING 181
SWIDTH 666 0
DWIDTH 12 0
BBX 9 10 2 -1
BITMAP
3e00
5f00
5f00
cd80
c180
c180
d980
7d00
7d00
3e00
ENDCHAR
STARTCHAR C266
ENCODING 182
SWIDTH 666 0
DWIDTH 12 0
BBX 9 10 2 -1
BITMAP
3e00
4700
4f00
d780
fb80
f780
f580
7900
7100
3e00
ENDCHAR
STARTCHAR C267
ENCODING 183
SWIDTH 666 0
DWIDTH 12 0
BBX 12 11 0 -1
BITMAP
3b80
4a40
b140
8440
cdc0
1000
5560
5210
8cb0
c520
79c0
ENDCHAR
STARTCHAR C270
ENCODING 184
SWIDTH 666 0
DWIDTH 12 0
BBX 10 10 1 -1
BITMAP
1e00
3f00
7f80
ffc0
ffc0
ffc0
ffc0
7f80
3f00
1e00
ENDCHAR
STARTCHAR C271
ENCODING 185
SWIDTH 666 0
DWIDTH 12 0
BBX 9 9 1 -1
BITMAP
8080
4100
2200
1400
0800
1400
2200
4100
8080
ENDCHAR
STARTCHAR C272
ENCODING 186
SWIDTH 666 0
DWIDTH 12 0
BBX 9 8 1 -1
BITMAP
0c00
3e00
4700
0f80
7e80
5c00
fc00
c600
ENDCHAR
STARTCHAR C273
ENCODING 187
SWIDTH 666 0
DWIDTH 12 0
BBX 10 10 1 -1
BITMAP
3000
5800
fc00
ec00
6cc0
0980
1980
1980
1f00
0e00
ENDCHAR
STARTCHAR C274
ENCODING 188
SWIDTH 666 0
DWIDTH 12 0
BBX 9 9 1 -1
BITMAP
8080
4100
2200
1400
0800
1400
2200
4100
8080
ENDCHAR
STARTCHAR C275
ENCODING 189
SWIDTH 666 0
DWIDTH 12 0
BBX 6 8 3 0
BITMAP
30
78
30
78
cc
84
cc
78
ENDCHAR
STARTCHAR C276
ENCODING 190
SWIDTH 666 0
DWIDTH 12 0
BBX 9 9 1 -1
BITMAP
8080
4100
2200
1400
0800
1400
2200
4100
8080
ENDCHAR
STARTCHAR C277
ENCODING 191
SWIDTH 666 0
DWIDTH 12 0
BBX 8 8 2 0
BITMAP
fd
fd
54
7e
7e
2a
fd
fd
ENDCHAR
STARTCHAR C300
ENCODING 192
SWIDTH 666 0
DWIDTH 12 0
BBX 9 9 1 -1
BITMAP
8080
4100
2200
1400
0800
1400
2200
4100
8080
ENDCHAR
STARTCHAR C301
ENCODING 193
SWIDTH 666 0
DWIDTH 12 0
BBX 11 12 0 -2
BITMAP
4e40
1100
a480
2ea0
6ec0
8420
bba0
aea0
aea0
8e20
4a40
9b20
ENDCHAR
STARTCHAR C302
ENCODING 194
SWIDTH 666 0
DWIDTH 12 0
BBX 9 9 1 -1
BITMAP
8080
4100
2200
1400
0800
1400
2200
4100
8080
ENDCHAR
STARTCHAR C303
ENCODING 195
SWIDTH 666 0
DWIDTH 12 0
BBX 9 9 1 -1
BITMAP
8080
4100
2200
1400
0800
1400
2200
4100
8080
ENDCHAR
STARTCHAR C304
ENCODING 196
SWIDTH 666 0
DWIDTH 12 0
BBX 12 12 0 -2
BITMAP
1c00
2e00
3e00
6600
9c00
3f80
7fc0
ffe0
ffb0
d9b0
1860
01c0
ENDCHAR
STARTCHAR C305
ENCODING 197
SWIDTH 666 0
DWIDTH 12 0
BBX 8 12 1 -2
BITMAP
3c
6a
7e
e7
ff
bd
b9
99
bd
34
76
f7
ENDCHAR
STARTCHAR C306
ENCODING 198
SWIDTH 666 0
DWIDTH 12 0
BBX 10 10 1 -1
BITMAP
3380
7ec0
cfc0
cf80
7f00
1d80
3dc0
6f40
7fc0
39c0
ENDCHAR
STARTCHAR C307
ENCODING 199
SWIDTH 666 0
DWIDTH 12 0
BBX 7 10 2 -1
BITMAP
10
38
7c
44
ee
fe
ba
d6
fe
fe
ENDCHAR
STARTCHAR C310
ENCODING 200
SWIDTH 666 0
DWIDTH 12 0
BBX 11 12 0 -2
BITMAP
1e00
3f80
3580
1f00
7980
ffc0
9f20
9f20
df60
db60
1b80
7be0
ENDCHAR
STARTCHAR C311
ENCODING 201
SWIDTH 666 0
DWIDTH 12 0
BBX 9 9 1 -1
BITMAP
8080
4100
2200
1400
0800
1400
2200
4100
8080
ENDCHAR
STARTCHAR C312
ENCODING 202
SWIDTH 666 0
DWIDTH 12 0
BBX 9 10 1 -1
BITMAP
c700
6e80
7c00
7800
a600
dd00
0c00
3f00
3300
6180
ENDCHAR
STARTCHAR C313
ENCODING 203
SWIDTH 666 0
DWIDTH 12 0
BBX 9 9 1 -1
BITMAP
8080
4100
2200
1400
0800
1400
2200
4100
8080
ENDCHAR
STARTCHAR C314
ENCODING 204
SWIDTH 666 0
DWIDTH 12 0
BBX 9 9 1 -1
BITMAP
8080
4100
2200
1400
0800
1400
2200
4100
8080
ENDCHAR
STARTCHAR C315
ENCODING 205
SWIDTH 666 0
DWIDTH 12 0
BBX 9 9 1 -1
BITMAP
8080
4100
2200
1400
0800
1400
2200
4100
8080
ENDCHAR
STARTCHAR C316
ENCODING 206
SWIDTH 666 0
DWIDTH 12 0
BBX 10 11 1 -2
BITMAP
3000
7800
3000
cc00
fc00
7800
7780
7fc0
38c0
0180
0200
ENDCHAR
STARTCHAR C317
ENCODING 207
SWIDTH 666 0
DWIDTH 12 0
BBX 9 9 1 -1
BITMAP
8080
4100
2200
1400
0800
1400
2200
4100
8080
ENDCHAR
STARTCHAR C320
ENCODING 208
SWIDTH 666 0
DWIDTH 12 0
BBX 9 9 1 -1
BITMAP
8080
4100
2200
1400
0800
1400
2200
4100
8080
ENDCHAR
STARTCHAR C321
ENCODING 209
SWIDTH 666 0
DWIDTH 12 0
BBX 9 9 1 -1
BITMAP
8080
4100
2200
1400
0800
1400
2200
4100
8080
ENDCHAR
STARTCHAR C322
ENCODING 210
SWIDTH 666 0
DWIDTH 12 0
BBX 9 9 1 -1
BITMAP
8080
4100
2200
1400
0800
1400
2200
4100
8080
ENDCHAR
STARTCHAR C323
ENCODING 211
SWIDTH 666 0
DWIDTH 12 0
BBX 9 9 1 -1
BITMAP
8080
4100
2200
1400
0800
1400
2200
4100
8080
ENDCHAR
STARTCHAR C324
ENCODING 212
SWIDTH 666 0
DWIDTH 12 0
BBX 9 12 2 -2
BITMAP
3e00
eb00
7f00
e380
e280
dd80
a780
6d00
1400
3600
7600
6200
ENDCHAR
STARTCHAR C325
ENCODING 213
SWIDTH 666 0
DWIDTH 12 0
BBX 9 9 1 -1
BITMAP
8080
4100
2200
1400
0800
1400
2200
4100
8080
ENDCHAR
STARTCHAR C326
ENCODING 214
SWIDTH 666 0
DWIDTH 12 0
BBX 9 9 1 -1
BITMAP
8080
4100
2200
1400
0800
1400
2200
4100
8080
ENDCHAR
STARTCHAR C327
ENCODING 215
SWIDTH 666 0
DWIDTH 12 0
BBX 9 9 1 -1
BITMAP
8080
4100
2200
1400
0800
1400
2200
4100
8080
ENDCHAR
STARTCHAR C330
ENCODING 216
SWIDTH 666 0
DWIDTH 12 0
BBX 9 9 1 -1
BITMAP
8080
4100
2200
1400
0800
1400
2200
4100
8080
ENDCHAR
STARTCHAR C331
ENCODING 217
SWIDTH 666 0
DWIDTH 12 0
BBX 11 11 1 -2
BITMAP
3c00
6a00
ff00
e300
fd00
bd00
dd00
3480
34c0
7660
e360
ENDCHAR
STARTCHAR C332
ENCODING 218
SWIDTH 666 0
DWIDTH 12 0
BBX 10 12 1 -2
BITMAP
1c00
0a00
1e00
1f80
3f80
6ec0
cfc0
9b00
1b00
1b00
1b00
3600
ENDCHAR
STARTCHAR C333
ENCODING 219
SWIDTH 666 0
DWIDTH 12 0
BBX 10 9 1 0
BITMAP
2d00
3300
a540
a340
a540
2300
5680
ad40
6180
ENDCHAR
STARTCHAR C334
ENCODING 220
SWIDTH 666 0
DWIDTH 12 0
BBX 11 11 0 -2
BITMAP
1f00
2080
2480
2e80
2480
1100
0e00
e0e0
bfa0
2080
4040
ENDCHAR
STARTCHAR C335
ENCODING 221
SWIDTH 666 0
DWIDTH 12 0
BBX 9 9 1 -1
BITMAP
8080
4100
2200
1400
0800
1400
2200
4100
8080
ENDCHAR
STARTCHAR C336
ENCODING 222
SWIDTH 666 0
DWIDTH 12 0
BBX 9 9 1 -1
BITMAP
8080
4100
2200
1400
0800
1400
2200
4100
8080
ENDCHAR
STARTCHAR C337
ENCODING 223
SWIDTH 666 0
DWIDTH 12 0
BBX 9 9 1 -1
BITMAP
8080
4100
2200
1400
0800
1400
2200
4100
8080
ENDCHAR
STARTCHAR C340
ENCODING 224
SWIDTH 666 0
DWIDTH 12 0
BBX 8 10 2 -1
BITMAP
38
38
b0
f6
7e
30
f6
ff
fe
7c
ENDCHAR
STARTCHAR C341
ENCODING 225
SWIDTH 666 0
DWIDTH 12 0
BBX 10 9 1 0
BITMAP
6000
f180
f3c0
3780
1680
fd40
af80
7f00
0500
ENDCHAR
STARTCHAR C342
ENCODING 226
SWIDTH 666 0
DWIDTH 12 0
BBX 10 10 1 -2
BITMAP
1800
3f00
4180
dc80
a680
a680
9c80
4300
ffc0
3f80
ENDCHAR
STARTCHAR C343
ENCODING 227
SWIDTH 666 0
DWIDTH 12 0
BBX 10 11 1 -2
BITMAP
2c00
1800
1800
6800
df80
1fc0
13c0
00c0
08c0
1180
0f00
ENDCHAR
STARTCHAR C344
ENCODING 228
SWIDTH 666 0
DWIDTH 12 0
BBX 10 10 1 -1
BITMAP
4800
5880
f040
5840
fc40
dfc0
3fc0
3ec0
6880
1880
ENDCHAR
STARTCHAR C345
ENCODING 229
SWIDTH 666 0
DWIDTH 12 0
BBX 9 8 1 1
BITMAP
3e00
7f00
ff80
9f80
d380
fb80
7f00
3e00
ENDCHAR
STARTCHAR C346
ENCODING 230
SWIDTH 666 0
DWIDTH 12 0
BBX 10 8 1 -1
BITMAP
0080
5040
f040
57c0
f7c0
5fc0
2dc0
1880
ENDCHAR
STARTCHAR C347
ENCODING 231
SWIDTH 666 0
DWIDTH 12 0
BBX 9 9 1 -1
BITMAP
8080
4100
2200
1400
0800
1400
2200
4100
8080
ENDCHAR
STARTCHAR C350
ENCODING 232
SWIDTH 666 0
DWIDTH 12 0
BBX 9 9 1 -1
BITMAP
8080
4100
2200
1400
0800
1400
2200
4100
8080
ENDCHAR
STARTCHAR C351
ENCODING 233
SWIDTH 666 0
DWIDTH 12 0
BBX 9 9 1 -1
BITMAP
8080
4100
2200
1400
0800
1400
2200
4100
8080
ENDCHAR
STARTCHAR C352
ENCODING 234
SWIDTH 666 0
DWIDTH 12 0
BBX 9 9 1 -1
BITMAP
8080
4100
2200
1400
0800
1400
2200
4100
8080
ENDCHAR
STARTCHAR C353
ENCODING 235
SWIDTH 666 0
DWIDTH 12 0
BBX 9 10 1 -1
BITMAP
2200
3e00
2a00
3e00
7700
ff80
ff80
5d00
1400
3600
ENDCHAR
STARTCHAR C354
ENCODING 236
SWIDTH 666 0
DWIDTH 12 0
BBX 9 9 1 -1
BITMAP
8080
4100
2200
1400
0800
1400
2200
4100
8080
ENDCHAR
STARTCHAR C355
ENCODING 237
SWIDTH 666 0
DWIDTH 12 0
BBX 9 9 1 -1
BITMAP
8080
4100
2200
1400
0800
1400
2200
4100
8080
ENDCHAR
STARTCHAR C356
ENCODING 238
SWIDTH 666 0
DWIDTH 12 0
BBX 9 9 1 -1
BITMAP
8080
4100
2200
1400
0800
1400
2200
4100
8080
ENDCHAR
STARTCHAR C357
ENCODING 239
SWIDTH 666 0
DWIDTH 12 0
BBX 7 10 2 -1
BITMAP
10
38
10
ee
fa
f2
ba
aa
6c
ee
ENDCHAR
STARTCHAR C360
ENCODING 240
SWIDTH 666 0
DWIDTH 12 0
BBX 8 10 1 0
BITMAP
ff
56
7e
34
34
38
18
18
10
10
ENDCHAR
STARTCHAR C361
ENCODING 241
SWIDTH 666 0
DWIDTH 12 0
BBX 9 9 1 -1
BITMAP
8080
4100
2200
1400
0800
1400
2200
4100
8080
ENDCHAR
STARTCHAR C362
ENCODING 242
SWIDTH 666 0
DWIDTH 12 0
BBX 9 9 1 -1
BITMAP
8080
4100
2200
1400
0800
1400
2200
4100
8080
ENDCHAR
STARTCHAR C363
ENCODING 243
SWIDTH 666 0
DWIDTH 12 0
BBX 10 10 1 -1
BITMAP
1c00
3000
e480
3f00
55c0
0180
3f40
3500
5080
2000
ENDCHAR
STARTCHAR C364
ENCODING 244
SWIDTH 666 0
DWIDTH 12 0
BBX 9 9 1 -1
BITMAP
8080
4100
2200
1400
0800
1400
2200
4100
8080
ENDCHAR
STARTCHAR C365
ENCODING 245
SWIDTH 666 0
DWIDTH 12 0
BBX 10 10 1 -1
BITMAP
8000
6c00
3800
6800
f800
df80
3f40
5500
5500
1100
ENDCHAR
STARTCHAR C366
ENCODING 246
SWIDTH 666 0
DWIDTH 12 0
BBX 9 9 1 -1
BITMAP
4f00
9480
ae00
e900
b680
4b80
3a80
9480
7900
ENDCHAR
STARTCHAR C367
ENCODING 247
SWIDTH 666 0
DWIDTH 12 0
BBX 9 9 1 -1
BITMAP
8080
4100
2200
1400
0800
1400
2200
4100
8080
ENDCHAR
STARTCHAR C370
ENCODING 248
SWIDTH 666 0
DWIDTH 12 0
BBX 9 9 1 -1
BITMAP
8080
4100
2200
1400
0800
1400
2200
4100
8080
ENDCHAR
STARTCHAR C371
ENCODING 249
SWIDTH 666 0
DWIDTH 12 0
BBX 9 9 1 0
BITMAP
0800
4900
3e00
3e00
ff80
3e00
3e00
4900
0800
ENDCHAR
STARTCHAR C372
ENCODING 250
SWIDTH 666 0
DWIDTH 12 0
BBX 9 9 1 -1
BITMAP
8080
4100
2200
1400
0800
1400
2200
4100
8080
ENDCHAR
STARTCHAR C373
ENCODING 251
SWIDTH 666 0
DWIDTH 12 0
BBX 9 9 1 -1
BITMAP
8080
4100
2200
1400
0800
1400
2200
4100
8080
ENDCHAR
STARTCHAR C374
ENCODING 252
SWIDTH 666 0
DWIDTH 12 0
BBX 9 9 1 -1
BITMAP
8080
4100
2200
1400
0800
1400
2200
4100
8080
ENDCHAR
STARTCHAR C375
ENCODING 253
SWIDTH 666 0
DWIDTH 12 0
BBX 9 9 1 -1
BITMAP
8080
4100
2200
1400
0800
1400
2200
4100
8080
ENDCHAR
STARTCHAR C376
ENCODING 254
SWIDTH 666 0
DWIDTH 12 0
BBX 9 9 1 -1
BITMAP
8080
4100
2200
1400
0800
1400
2200
4100
8080
ENDCHAR
STARTCHAR C377
ENCODING 255
SWIDTH 666 0
DWIDTH 12 0
BBX 9 9 1 -1
BITMAP
8080
4100
2200
1400
0800
1400
2200
4100
8080
ENDCHAR
ENDFONT
